<svg xmlns="http://www.w3.org/2000/svg" viewBox="0 0 120 136" enable-background="new 0 0 120 136"><path d="M120 89.997c0 4.402-2.997 10.001-6.659 12.443l-46.682 31.121c-3.662 2.442-9.656 2.442-13.318 0l-46.682-31.122c-3.662-2.441-6.659-8.04-6.659-12.442v-43.994c0-4.402 2.997-10.001 6.659-12.443l46.682-31.121c3.662-2.442 9.656-2.442 13.318 0l46.682 31.121c3.662 2.442 6.659 8.041 6.659 12.443v43.994z" fill="#56A4CA"/><g><path d="M92 72c-5.514 0-10-4.486-10-10s4.486-10 10-10 10 4.486 10 10-4.486 10-10 10z" fill="#fff"/><path d="M92 53c4.971 0 9 4.029 9 9s-4.029 9-9 9-9-4.029-9-9 4.029-9 9-9m0-2c-6.065 0-11 4.935-11 11s4.935 11 11 11 11-4.935 11-11-4.935-11-11-11z" fill="#56A4CA"/><path d="M85 100c-.52 0-.953-.398-.997-.917l-1.278-15.335c-.208-2.501.646-4.995 2.346-6.842 1.7-1.847 4.114-2.906 6.623-2.906h.611c2.51 0 4.923 1.059 6.623 2.906 1.7 1.847 2.555 4.341 2.346 6.842l-1.278 15.335c-.043.519-.476.917-.996.917h-14z" fill="#fff"/><path d="M92.306 75c4.68 0 8.361 4 7.972 8.664l-1.278 15.336h-14l-1.278-15.336c-.389-4.664 3.292-8.664 7.972-8.664h.612m0-2h-.611c-2.788 0-5.471 1.177-7.359 3.229s-2.838 4.823-2.607 7.602l1.278 15.336c.086 1.036.953 1.833 1.993 1.833h14c1.04 0 1.907-.797 1.993-1.834l1.278-15.336c.232-2.779-.719-5.55-2.607-7.602-1.888-2.051-4.57-3.228-7.358-3.228z" fill="#56A4CA"/><path d="M28 72c-5.514 0-10-4.486-10-10s4.486-10 10-10 10 4.486 10 10-4.486 10-10 10z" fill="#fff"/><path d="M28 53c4.971 0 9 4.029 9 9s-4.029 9-9 9-9-4.029-9-9 4.029-9 9-9m0-2c-6.065 0-11 4.935-11 11s4.935 11 11 11 11-4.935 11-11-4.935-11-11-11z" fill="#56A4CA"/><path d="M21 100c-.52 0-.953-.398-.997-.917l-1.278-15.335c-.208-2.501.646-4.995 2.346-6.842 1.7-1.847 4.114-2.906 6.623-2.906h.611c2.51 0 4.923 1.059 6.623 2.906 1.7 1.847 2.555 4.341 2.346 6.842l-1.278 15.335c-.043.519-.476.917-.996.917h-14z" fill="#fff"/><path d="M28.306 75c4.68 0 8.361 4 7.972 8.664l-1.278 15.336h-14l-1.278-15.336c-.389-4.664 3.292-8.664 7.972-8.664h.612m0-2h-.611c-2.788 0-5.471 1.177-7.359 3.229s-2.838 4.823-2.607 7.602l1.278 15.336c.086 1.036.953 1.833 1.993 1.833h14c1.04 0 1.907-.797 1.993-1.834l1.278-15.336c.232-2.779-.719-5.55-2.607-7.602-1.888-2.051-4.57-3.228-7.358-3.228z" fill="#56A4CA"/><g fill="#fff"><path d="M52.5 3h15l-.841-.561c-.991-.66-2.155-1.136-3.395-1.439h-6.528c-1.24.303-2.404.779-3.395 1.439l-.841.561zM22.212 99.616c.19.242.48.384.788.384h74c.308 0 .598-.142.788-.384s.257-.558.183-.856l-22.355-90.349-2.467-1.645 22.574 91.234h-71.446l22.574-91.234-2.467 1.645-22.355 90.349c-.073.298-.006.614.183.856z"/></g><path fill="#56A4CA" d="M95.723 98l-22.574-91.234-5.649-3.766h-15l-5.649 3.766-22.574 91.234zM60 105c-.38 0-38-.069-38-6s37.62-6 38-6 38 .069 38 6-37.62 6-38 6z"/><path d="M60 94c19.33 0 37 2.239 37 5s-17.67 5-37 5-37-2.239-37-5 17.67-5 37-5m0-2c-9.418 0-18.899.54-26.011 1.482-8.019 1.061-12.989 2.355-12.989 5.518s4.97 4.457 12.989 5.518c7.112.942 16.593 1.482 26.011 1.482s18.899-.54 26.011-1.482c8.019-1.061 12.989-2.355 12.989-5.518s-4.97-4.457-12.989-5.518c-7.112-.942-16.593-1.482-26.011-1.482zM60 64.5c-7.444 0-13.5-6.056-13.5-13.5s6.056-13.5 13.5-13.5 13.5 6.056 13.5 13.5-6.056 13.5-13.5 13.5z" fill="#fff"/><path d="M60 39c6.627 0 12 5.373 12 12s-5.373 12-12 12-12-5.373-12-12 5.373-12 12-12m0-3c-8.271 0-15 6.729-15 15s6.729 15 15 15 15-6.729 15-15-6.729-15-15-15z" fill="#56A4CA"/><path d="M50 99.5c-.79 0-1.444-.612-1.497-1.4l-1.289-19.335c-.214-3.21.878-6.271 3.077-8.621s5.181-3.644 8.398-3.644h2.622c3.217 0 6.2 1.294 8.398 3.644s3.291 5.411 3.077 8.621l-1.289 19.335c-.052.788-.707 1.4-1.497 1.4h-20z" fill="#fff"/><path d="M61.311 68c5.785 0 10.363 4.893 9.978 10.665l-1.289 19.335h-20l-1.289-19.335c-.385-5.772 4.193-10.665 9.978-10.665h2.622m0-3h-2.622c-3.584 0-7.045 1.501-9.493 4.119s-3.716 6.17-3.478 9.746l1.289 19.335c.105 1.576 1.414 2.8 2.993 2.8h20c1.579 0 2.888-1.225 2.993-2.8l1.289-19.335c.238-3.576-1.029-7.129-3.478-9.746s-5.908-4.119-9.493-4.119z" fill="#56A4CA"/></g><path d="M113.341 33.561l-46.682-31.122c-1.831-1.22-4.245-1.831-6.659-1.831v134.784c2.414 0 4.828-.61 6.659-1.831l46.682-31.121c3.662-2.442 6.659-8.041 6.659-12.443v-43.994c0-4.402-2.997-10.001-6.659-12.442z" opacity=".08"/><path d="M60 4.608c1.717 0 3.335.423 4.44 1.159l46.682 31.121c2.553 1.702 4.878 6.046 4.878 9.114v43.994c0 3.068-2.325 7.412-4.878 9.114l-46.682 31.122c-1.105.737-2.724 1.159-4.44 1.159s-3.335-.423-4.44-1.159l-46.682-31.121c-2.553-1.702-4.878-6.046-4.878-9.114v-43.994c0-3.068 2.325-7.412 4.878-9.114l46.682-31.121c1.105-.737 2.723-1.16 4.44-1.16m0-4c-2.414 0-4.828.61-6.659 1.831l-46.682 31.122c-3.662 2.441-6.659 8.04-6.659 12.442v43.994c0 4.402 2.997 10.001 6.659 12.443l46.682 31.121c1.831 1.221 4.245 1.831 6.659 1.831s4.828-.61 6.659-1.831l46.682-31.121c3.662-2.442 6.659-8.041 6.659-12.443v-43.994c0-4.402-2.997-10.001-6.659-12.443l-46.682-31.121c-1.831-1.22-4.245-1.831-6.659-1.831z" fill="#56A4CA"/></svg>