<svg xmlns="http://www.w3.org/2000/svg" viewBox="0 0 120 136" enable-background="new 0 0 120 136"><g><path fill="#8360A8" d="M120 90c0 4.4-3 10-6.7 12.4l-46.7 31.1c-3.7 2.4-9.7 2.4-13.3 0l-46.6-31.1c-3.7-2.4-6.7-8-6.7-12.4v-44c0-4.4 3-10 6.7-12.4l46.6-31.2c3.7-2.4 9.7-2.4 13.4 0l46.7 31.1c3.7 2.4 6.7 8 6.7 12.4v44.1z"/><path fill="#fff" d="M78 96.1l-7.5-21.4c.1-2.9.2-5.8.2-8 0-15.8-7.7-28.7-10.7-28.7-3 0-10.7 12.9-10.7 28.7 0 2.4.1 5.3.1 8l-7.4 21.4c-.2.5.1 1 .5.8l7.6-3.2h.2l1.8.8c.9 1.4 1.9 2.4 3 2.8 2.6 1 6.9 1 9.6 0 1.1-.4 2.2-1.5 3.1-2.8l1.7-.7h.2l7.6 3.2c.5.1.8-.4.7-.9zm-18-30c-2.2 0-4-1.8-4-4s1.8-4 4-4 4 1.8 4 4-1.8 4-4 4z"/><path fill="#8360A8" d="M64.1 82.2c0-2.3-2-2.9-3.5-3.4-1.1-.3-1.8-.6-1.8-1.3 0-.8.7-1.1 1.5-1.1.4 0 .9.1 1.5.5.4.2.6.3.8.3.7 0 1.2-.6 1.2-1.2 0-.4-.2-.8-.7-1.1-.5-.3-1.3-.5-2-.6v-.9c0-.6-.5-1.1-1.1-1.1s-1.1.5-1.1 1.1v1.1c-1.5.4-2.8 1.5-2.8 3.4 0 2.1 1.5 2.8 2.9 3.3 1.5.5 2.4.8 2.4 1.6 0 .9-.7 1.2-1.4 1.2s-1.5-.3-1.9-.6c-.4-.3-.7-.4-.9-.4-.7 0-1.3.6-1.3 1.3 0 .3.1.7.6 1.1.5.4 1.5.7 2.4.9v1c0 .6.5 1.1 1.1 1.1s1.1-.5 1.1-1.1v-1.1c1.7-.8 3-1.9 3-4z"/><path fill="#fff" d="M39.3 124.2l14.1 9.4c3.7 2.4 9.7 2.4 13.3 0l11.8-7.9c-1.1-3.5-4-6.3-7.6-7.3.1-.5.1-.9.1-1.4 0-3.6-2.2-6.8-5.3-8.2.2-.6.3-1.2.3-1.8 0-3.3-2.7-6-6-6s-6 2.7-6 6c0 .6.1 1.1.2 1.7-4.2 1.5-7.2 5.5-7.2 10.3 0 .7.1 1.4.2 2h-.2c-3 0-5.7 1.2-7.7 3.2z"/><path opacity=".08" d="M113.3 33.6l-46.6-31.2c-1.8-1.2-4.2-1.8-6.7-1.8v134.8c2.4 0 4.8-.6 6.7-1.8l46.7-31.1c3.7-2.4 6.7-8 6.7-12.4v-44.1c-.1-4.4-3.1-10-6.8-12.4z"/><path fill="#8360A8" d="M60 4.6c1.7 0 3.3.4 4.4 1.2l46.7 31.1c2.6 1.7 4.9 6 4.9 9.1v44c0 3.1-2.3 7.4-4.9 9.1l-46.7 31.1c-1.1.7-2.7 1.2-4.4 1.2s-3.3-.4-4.4-1.2l-46.7-31.1c-2.6-1.7-4.9-6-4.9-9.1v-44c0-3.1 2.3-7.4 4.9-9.1l46.7-31.1c1.1-.8 2.7-1.2 4.4-1.2m0-4c-2.4 0-4.8.6-6.7 1.8l-46.6 31.2c-3.7 2.4-6.7 8-6.7 12.4v44c0 4.4 3 10 6.7 12.4l46.7 31.1c1.8 1.2 4.2 1.8 6.7 1.8s4.8-.6 6.7-1.8l46.7-31.1c3.7-2.4 6.7-8 6.7-12.4v-44c0-4.4-3-10-6.7-12.4l-46.8-31.2c-1.9-1.2-4.3-1.8-6.7-1.8z"/></g></svg>